%TF.GenerationSoftware,KiCad,Pcbnew,9.0.2*%
%TF.CreationDate,2025-07-04T20:25:53-04:00*%
%TF.ProjectId,Hack club,4861636b-2063-46c7-9562-2e6b69636164,rev?*%
%TF.SameCoordinates,Original*%
%TF.FileFunction,Copper,L1,Top*%
%TF.FilePolarity,Positive*%
%FSLAX46Y46*%
G04 Gerber Fmt 4.6, Leading zero omitted, Abs format (unit mm)*
G04 Created by KiCad (PCBNEW 9.0.2) date 2025-07-04 20:25:53*
%MOMM*%
%LPD*%
G01*
G04 APERTURE LIST*
G04 Aperture macros list*
%AMRoundRect*
0 Rectangle with rounded corners*
0 $1 Rounding radius*
0 $2 $3 $4 $5 $6 $7 $8 $9 X,Y pos of 4 corners*
0 Add a 4 corners polygon primitive as box body*
4,1,4,$2,$3,$4,$5,$6,$7,$8,$9,$2,$3,0*
0 Add four circle primitives for the rounded corners*
1,1,$1+$1,$2,$3*
1,1,$1+$1,$4,$5*
1,1,$1+$1,$6,$7*
1,1,$1+$1,$8,$9*
0 Add four rect primitives between the rounded corners*
20,1,$1+$1,$2,$3,$4,$5,0*
20,1,$1+$1,$4,$5,$6,$7,0*
20,1,$1+$1,$6,$7,$8,$9,0*
20,1,$1+$1,$8,$9,$2,$3,0*%
G04 Aperture macros list end*
%TA.AperFunction,ComponentPad*%
%ADD10C,2.200000*%
%TD*%
%TA.AperFunction,ComponentPad*%
%ADD11C,1.815000*%
%TD*%
%TA.AperFunction,ComponentPad*%
%ADD12R,1.815000X1.815000*%
%TD*%
%TA.AperFunction,SMDPad,CuDef*%
%ADD13RoundRect,0.152400X1.063600X0.609600X-1.063600X0.609600X-1.063600X-0.609600X1.063600X-0.609600X0*%
%TD*%
%TA.AperFunction,ComponentPad*%
%ADD14C,1.524000*%
%TD*%
%TA.AperFunction,SMDPad,CuDef*%
%ADD15RoundRect,0.152400X-1.063600X-0.609600X1.063600X-0.609600X1.063600X0.609600X-1.063600X0.609600X0*%
%TD*%
%TA.AperFunction,ComponentPad*%
%ADD16C,1.400000*%
%TD*%
%TA.AperFunction,Conductor*%
%ADD17C,0.200000*%
%TD*%
G04 APERTURE END LIST*
D10*
%TO.P,SW3,1,1*%
%TO.N,button3*%
X91679000Y-93560500D03*
%TO.P,SW3,2,2*%
%TO.N,GND*%
X85329000Y-96100500D03*
%TD*%
D11*
%TO.P,D3,A*%
%TO.N,Net-(D3-PadA)*%
X122844000Y-66942735D03*
D12*
%TO.P,D3,C*%
%TO.N,GND*%
X120304000Y-66942735D03*
%TD*%
D10*
%TO.P,SW4,1,1*%
%TO.N,button4*%
X115369000Y-114020500D03*
%TO.P,SW4,2,2*%
%TO.N,GND*%
X109019000Y-116560500D03*
%TD*%
D11*
%TO.P,D4,A*%
%TO.N,Net-(D4-PadA)*%
X131329000Y-74600500D03*
D12*
%TO.P,D4,C*%
%TO.N,GND*%
X128789000Y-74600500D03*
%TD*%
D13*
%TO.P,U1,1,GPIO26/ADC0/A0*%
%TO.N,button1*%
X124400000Y-91850000D03*
D14*
X125235000Y-91850000D03*
D13*
%TO.P,U1,2,GPIO27/ADC1/A1*%
%TO.N,button2*%
X124400000Y-94390000D03*
D14*
X125235000Y-94390000D03*
D13*
%TO.P,U1,3,GPIO28/ADC2/A2*%
%TO.N,button3*%
X124400000Y-96930000D03*
D14*
X125235000Y-96930000D03*
D13*
%TO.P,U1,4,GPIO29/ADC3/A3*%
%TO.N,Led1*%
X124400000Y-99470000D03*
D14*
X125235000Y-99470000D03*
D13*
%TO.P,U1,5,GPIO6/SDA*%
%TO.N,Led2*%
X124400000Y-102010000D03*
D14*
X125235000Y-102010000D03*
D13*
%TO.P,U1,6,GPIO7/SCL*%
%TO.N,Led3*%
X124400000Y-104550000D03*
D14*
X125235000Y-104550000D03*
D13*
%TO.P,U1,7,GPIO0/TX*%
%TO.N,button4*%
X124400000Y-107090000D03*
D14*
X125235000Y-107090000D03*
%TO.P,U1,8,GPIO1/RX*%
%TO.N,Led4*%
X140475000Y-107090000D03*
D15*
X141310000Y-107090000D03*
D14*
%TO.P,U1,9,GPIO2/SCK*%
%TO.N,unconnected-(U1-GPIO2{slash}SCK-Pad9)*%
X140475000Y-104550000D03*
D15*
X141310000Y-104550000D03*
D14*
%TO.P,U1,10,GPIO4/MISO*%
%TO.N,unconnected-(U1-GPIO4{slash}MISO-Pad10)*%
X140475000Y-102010000D03*
D15*
X141310000Y-102010000D03*
D14*
%TO.P,U1,11,GPIO3/MOSI*%
%TO.N,unconnected-(U1-GPIO3{slash}MOSI-Pad11)*%
X140475000Y-99470000D03*
D15*
X141310000Y-99470000D03*
D14*
%TO.P,U1,12,3V3*%
%TO.N,unconnected-(U1-3V3-Pad12)*%
X140475000Y-96930000D03*
D15*
X141310000Y-96930000D03*
D14*
%TO.P,U1,13,GND*%
%TO.N,GND*%
X140475000Y-94390000D03*
D15*
X141310000Y-94390000D03*
D14*
%TO.P,U1,14,VBUS*%
%TO.N,unconnected-(U1-VBUS-Pad14)*%
X140475000Y-91850000D03*
D15*
X141310000Y-91850000D03*
%TD*%
D10*
%TO.P,SW2,1,1*%
%TO.N,button2*%
X92179000Y-74060500D03*
%TO.P,SW2,2,2*%
%TO.N,GND*%
X85829000Y-76600500D03*
%TD*%
D16*
%TO.P,R2,1*%
%TO.N,Net-(D4-PadA)*%
X136249000Y-57250500D03*
%TO.P,R2,2*%
%TO.N,Led2*%
X141329000Y-57250500D03*
%TD*%
D11*
%TO.P,D5,A*%
%TO.N,Net-(D5-PadA)*%
X118369000Y-81100500D03*
D12*
%TO.P,D5,C*%
%TO.N,GND*%
X115829000Y-81100500D03*
%TD*%
D11*
%TO.P,D1,A*%
%TO.N,Net-(D1-PadA)*%
X123869000Y-55600500D03*
D12*
%TO.P,D1,C*%
%TO.N,GND*%
X121329000Y-55600500D03*
%TD*%
D10*
%TO.P,SW1,1,1*%
%TO.N,button1*%
X103869000Y-53520500D03*
%TO.P,SW1,2,2*%
%TO.N,GND*%
X97519000Y-56060500D03*
%TD*%
D16*
%TO.P,R3,1*%
%TO.N,Net-(D5-PadA)*%
X136249000Y-60400500D03*
%TO.P,R3,2*%
%TO.N,Led3*%
X141329000Y-60400500D03*
%TD*%
%TO.P,R4,1*%
%TO.N,Net-(D1-PadA)*%
X136249000Y-63550500D03*
%TO.P,R4,2*%
%TO.N,Led4*%
X141329000Y-63550500D03*
%TD*%
%TO.P,R1,1*%
%TO.N,Net-(D3-PadA)*%
X137249000Y-53100500D03*
%TO.P,R1,2*%
%TO.N,Led1*%
X142329000Y-53100500D03*
%TD*%
D17*
%TO.N,*%
X112829000Y-120100500D02*
X112829000Y-122100500D01*
X113329000Y-119600500D02*
X112829000Y-120100500D01*
%TO.N,Net-(D1-PadA)*%
X131819000Y-63550500D02*
X123869000Y-55600500D01*
X136249000Y-63550500D02*
X131819000Y-63550500D01*
%TO.N,GND*%
X120304000Y-56625500D02*
X120304000Y-66115500D01*
X122329000Y-74600500D02*
X115829000Y-81100500D01*
X128789000Y-74600500D02*
X122329000Y-74600500D01*
X120304000Y-66942735D02*
X95486765Y-66942735D01*
X120304000Y-66115500D02*
X128789000Y-74600500D01*
X90778000Y-73480186D02*
X91598686Y-72659500D01*
X85329000Y-96100500D02*
X85329000Y-80089814D01*
X97979000Y-55600500D02*
X97519000Y-56060500D01*
X107388000Y-72659500D02*
X115829000Y-81100500D01*
X85329000Y-80089814D02*
X90778000Y-74640814D01*
X90778000Y-74640814D02*
X90778000Y-73480186D01*
X121329000Y-55600500D02*
X120304000Y-56625500D01*
X121329000Y-65917735D02*
X120304000Y-66942735D01*
X121329000Y-55600500D02*
X97979000Y-55600500D01*
X95486765Y-66942735D02*
X85829000Y-76600500D01*
X91598686Y-72659500D02*
X107388000Y-72659500D01*
%TO.N,Net-(D3-PadA)*%
X122844000Y-66942735D02*
X122660500Y-66759235D01*
%TO.N,Net-(D4-PadA)*%
X137250000Y-58251500D02*
X136249000Y-57250500D01*
X131329000Y-74600500D02*
X137250000Y-68679500D01*
X137250000Y-68679500D02*
X137250000Y-58251500D01*
%TO.N,Net-(D5-PadA)*%
X138651000Y-58236872D02*
X136663628Y-56249500D01*
X118369000Y-81285000D02*
X118053500Y-81600500D01*
X118369000Y-88137626D02*
X123144374Y-92913000D01*
X138651000Y-79937310D02*
X138651000Y-58236872D01*
X118369000Y-81100500D02*
X118369000Y-88137626D01*
X138651000Y-78166100D02*
X138651000Y-77833900D01*
X135248000Y-56835872D02*
X135248000Y-59399500D01*
X136663628Y-56249500D02*
X135834372Y-56249500D01*
X125675310Y-92913000D02*
X138651000Y-79937310D01*
X135834372Y-56249500D02*
X135248000Y-56835872D01*
X135248000Y-59399500D02*
X136249000Y-60400500D01*
X135248000Y-57665128D02*
X135329000Y-57746128D01*
X138644517Y-78172583D02*
X138651000Y-78166100D01*
X123144374Y-92913000D02*
X125675310Y-92913000D01*
X138651000Y-77833900D02*
X138644517Y-77827417D01*
%TO.N,Led2*%
X124400000Y-102010000D02*
X142553500Y-83856500D01*
X142553500Y-83856500D02*
X142553500Y-58475000D01*
X142553500Y-58475000D02*
X141329000Y-57250500D01*
%TO.N,Led4*%
X125413936Y-98254374D02*
X141329000Y-82339310D01*
X122883000Y-102811626D02*
X122883000Y-98254374D01*
X122883000Y-98254374D02*
X125413936Y-98254374D01*
X141329000Y-82339310D02*
X141329000Y-63550500D01*
X141310000Y-107090000D02*
X137293000Y-103073000D01*
X123144374Y-103073000D02*
X122883000Y-102811626D01*
X137293000Y-103073000D02*
X123144374Y-103073000D01*
%TO.N,button1*%
X122537500Y-60037500D02*
X129997500Y-67497500D01*
X103869000Y-53520500D02*
X121666000Y-53520500D01*
X121666000Y-53520500D02*
X122537500Y-54392000D01*
X124400000Y-91850000D02*
X138250000Y-78000000D01*
X122537500Y-54392000D02*
X122537500Y-60037500D01*
X129997500Y-67497500D02*
X129997500Y-87087500D01*
X129997500Y-87087500D02*
X125235000Y-91850000D01*
%TO.N,button2*%
X112508500Y-94390000D02*
X92179000Y-74060500D01*
X125235000Y-94390000D02*
X112508500Y-94390000D01*
%TO.N,button3*%
X105158500Y-96930000D02*
X124400000Y-96930000D01*
X100869000Y-93560500D02*
X101329000Y-93100500D01*
X101329000Y-93100500D02*
X105158500Y-96930000D01*
X91679000Y-93560500D02*
X100869000Y-93560500D01*
%TO.N,button4*%
X122299500Y-107090000D02*
X125235000Y-107090000D01*
X115369000Y-114020500D02*
X122299500Y-107090000D01*
%TO.N,unconnected-(U1-3V3-Pad12)*%
X140475000Y-96930000D02*
X141310000Y-96930000D01*
X140475000Y-96930000D02*
X139412000Y-95867000D01*
%TD*%
M02*
