M48
; DRILL file {KiCad 9.0.2} date 2025-07-04T20:25:57-0400
; FORMAT={-:-/ absolute / metric / decimal}
; #@! TF.CreationDate,2025-07-04T20:25:57-04:00
; #@! TF.GenerationSoftware,Kicad,Pcbnew,9.0.2
; #@! TF.FileFunction,Plated,1,2,PTH
FMAT,2
METRIC
; #@! TA.AperFunction,Plated,PTH,ComponentDrill
T1C0.700
; #@! TA.AperFunction,Plated,PTH,ComponentDrill
T2C0.889
; #@! TA.AperFunction,Plated,PTH,ComponentDrill
T3C1.210
; #@! TA.AperFunction,Plated,PTH,ComponentDrill
T4C1.500
%
G90
G05
T1
X136.249Y-57.25
X136.249Y-60.4
X136.249Y-63.55
X137.249Y-53.1
X141.329Y-57.25
X141.329Y-60.4
X141.329Y-63.55
X142.329Y-53.1
T2
X125.235Y-91.85
X125.235Y-94.39
X125.235Y-96.93
X125.235Y-99.47
X125.235Y-102.01
X125.235Y-104.55
X125.235Y-107.09
X140.475Y-91.85
X140.475Y-94.39
X140.475Y-96.93
X140.475Y-99.47
X140.475Y-102.01
X140.475Y-104.55
X140.475Y-107.09
T3
X115.829Y-81.1
X118.369Y-81.1
X120.304Y-66.943
X121.329Y-55.6
X122.844Y-66.943
X123.869Y-55.6
X128.789Y-74.6
X131.329Y-74.6
T4
X85.329Y-96.1
X85.829Y-76.6
X91.679Y-93.56
X92.179Y-74.06
X97.519Y-56.06
X103.869Y-53.52
X109.019Y-116.56
X115.369Y-114.02
M30
