%TF.GenerationSoftware,KiCad,Pcbnew,9.0.2*%
%TF.CreationDate,2025-07-04T20:25:53-04:00*%
%TF.ProjectId,Hack club,4861636b-2063-46c7-9562-2e6b69636164,rev?*%
%TF.SameCoordinates,Original*%
%TF.FileFunction,Copper,L2,Bot*%
%TF.FilePolarity,Positive*%
%FSLAX46Y46*%
G04 Gerber Fmt 4.6, Leading zero omitted, Abs format (unit mm)*
G04 Created by KiCad (PCBNEW 9.0.2) date 2025-07-04 20:25:53*
%MOMM*%
%LPD*%
G01*
G04 APERTURE LIST*
%TA.AperFunction,ComponentPad*%
%ADD10C,2.200000*%
%TD*%
%TA.AperFunction,ComponentPad*%
%ADD11C,1.815000*%
%TD*%
%TA.AperFunction,ComponentPad*%
%ADD12R,1.815000X1.815000*%
%TD*%
%TA.AperFunction,ComponentPad*%
%ADD13C,1.524000*%
%TD*%
%TA.AperFunction,ComponentPad*%
%ADD14C,1.400000*%
%TD*%
%TA.AperFunction,Conductor*%
%ADD15C,0.200000*%
%TD*%
G04 APERTURE END LIST*
D10*
%TO.P,SW3,1,1*%
%TO.N,button3*%
X91679000Y-93560500D03*
%TO.P,SW3,2,2*%
%TO.N,GND*%
X85329000Y-96100500D03*
%TD*%
D11*
%TO.P,D3,A*%
%TO.N,Net-(D3-PadA)*%
X122844000Y-66942735D03*
D12*
%TO.P,D3,C*%
%TO.N,GND*%
X120304000Y-66942735D03*
%TD*%
D10*
%TO.P,SW4,1,1*%
%TO.N,button4*%
X115369000Y-114020500D03*
%TO.P,SW4,2,2*%
%TO.N,GND*%
X109019000Y-116560500D03*
%TD*%
D11*
%TO.P,D4,A*%
%TO.N,Net-(D4-PadA)*%
X131329000Y-74600500D03*
D12*
%TO.P,D4,C*%
%TO.N,GND*%
X128789000Y-74600500D03*
%TD*%
D13*
%TO.P,U1,1,GPIO26/ADC0/A0*%
%TO.N,button1*%
X125235000Y-91850000D03*
%TO.P,U1,2,GPIO27/ADC1/A1*%
%TO.N,button2*%
X125235000Y-94390000D03*
%TO.P,U1,3,GPIO28/ADC2/A2*%
%TO.N,button3*%
X125235000Y-96930000D03*
%TO.P,U1,4,GPIO29/ADC3/A3*%
%TO.N,Led1*%
X125235000Y-99470000D03*
%TO.P,U1,5,GPIO6/SDA*%
%TO.N,Led2*%
X125235000Y-102010000D03*
%TO.P,U1,6,GPIO7/SCL*%
%TO.N,Led3*%
X125235000Y-104550000D03*
%TO.P,U1,7,GPIO0/TX*%
%TO.N,button4*%
X125235000Y-107090000D03*
%TO.P,U1,8,GPIO1/RX*%
%TO.N,Led4*%
X140475000Y-107090000D03*
%TO.P,U1,9,GPIO2/SCK*%
%TO.N,unconnected-(U1-GPIO2{slash}SCK-Pad9)*%
X140475000Y-104550000D03*
%TO.P,U1,10,GPIO4/MISO*%
%TO.N,unconnected-(U1-GPIO4{slash}MISO-Pad10)*%
X140475000Y-102010000D03*
%TO.P,U1,11,GPIO3/MOSI*%
%TO.N,unconnected-(U1-GPIO3{slash}MOSI-Pad11)*%
X140475000Y-99470000D03*
%TO.P,U1,12,3V3*%
%TO.N,unconnected-(U1-3V3-Pad12)*%
X140475000Y-96930000D03*
%TO.P,U1,13,GND*%
%TO.N,GND*%
X140475000Y-94390000D03*
%TO.P,U1,14,VBUS*%
%TO.N,unconnected-(U1-VBUS-Pad14)*%
X140475000Y-91850000D03*
%TD*%
D10*
%TO.P,SW2,1,1*%
%TO.N,button2*%
X92179000Y-74060500D03*
%TO.P,SW2,2,2*%
%TO.N,GND*%
X85829000Y-76600500D03*
%TD*%
D14*
%TO.P,R2,1*%
%TO.N,Net-(D4-PadA)*%
X136249000Y-57250500D03*
%TO.P,R2,2*%
%TO.N,Led2*%
X141329000Y-57250500D03*
%TD*%
D11*
%TO.P,D5,A*%
%TO.N,Net-(D5-PadA)*%
X118369000Y-81100500D03*
D12*
%TO.P,D5,C*%
%TO.N,GND*%
X115829000Y-81100500D03*
%TD*%
D11*
%TO.P,D1,A*%
%TO.N,Net-(D1-PadA)*%
X123869000Y-55600500D03*
D12*
%TO.P,D1,C*%
%TO.N,GND*%
X121329000Y-55600500D03*
%TD*%
D10*
%TO.P,SW1,1,1*%
%TO.N,button1*%
X103869000Y-53520500D03*
%TO.P,SW1,2,2*%
%TO.N,GND*%
X97519000Y-56060500D03*
%TD*%
D14*
%TO.P,R3,1*%
%TO.N,Net-(D5-PadA)*%
X136249000Y-60400500D03*
%TO.P,R3,2*%
%TO.N,Led3*%
X141329000Y-60400500D03*
%TD*%
%TO.P,R4,1*%
%TO.N,Net-(D1-PadA)*%
X136249000Y-63550500D03*
%TO.P,R4,2*%
%TO.N,Led4*%
X141329000Y-63550500D03*
%TD*%
%TO.P,R1,1*%
%TO.N,Net-(D3-PadA)*%
X137249000Y-53100500D03*
%TO.P,R1,2*%
%TO.N,Led1*%
X142329000Y-53100500D03*
%TD*%
D15*
%TO.N,GND*%
X137250000Y-63063872D02*
X137250000Y-66139500D01*
X109019000Y-116560500D02*
X103734184Y-116560500D01*
X103734184Y-116560500D02*
X85329000Y-98155316D01*
X85329000Y-98155316D02*
X85329000Y-96100500D01*
X140914372Y-59399500D02*
X137250000Y-63063872D01*
X141743628Y-59399500D02*
X140914372Y-59399500D01*
X140475000Y-94390000D02*
X140475000Y-93353310D01*
X137250000Y-66139500D02*
X128789000Y-74600500D01*
X140475000Y-93353310D02*
X142330000Y-91498310D01*
X142330000Y-59985872D02*
X141743628Y-59399500D01*
X142330000Y-91498310D02*
X142330000Y-59985872D01*
%TO.N,Net-(D3-PadA)*%
X136686235Y-53100500D02*
X137249000Y-53100500D01*
X122844000Y-66942735D02*
X136686235Y-53100500D01*
%TO.N,Led1*%
X143029000Y-105625000D02*
X143029000Y-53800500D01*
X131792000Y-106027000D02*
X142627000Y-106027000D01*
X143029000Y-53800500D02*
X142329000Y-53100500D01*
X142627000Y-106027000D02*
X143029000Y-105625000D01*
X125235000Y-99470000D02*
X131792000Y-106027000D01*
%TO.N,Led3*%
X101104600Y-82309000D02*
X125329578Y-82309000D01*
X93518000Y-79637970D02*
X93518000Y-78643030D01*
X140328000Y-61401500D02*
X141329000Y-60400500D01*
X125329578Y-82309000D02*
X140328000Y-67310578D01*
X140328000Y-67310578D02*
X140328000Y-61401500D01*
X96247650Y-77452050D02*
X101104600Y-82309000D01*
X118430030Y-104550000D02*
X93518000Y-79637970D01*
X125235000Y-104550000D02*
X118430030Y-104550000D01*
X94708980Y-77452050D02*
X96247650Y-77452050D01*
X93518000Y-78643030D02*
X94708980Y-77452050D01*
%TO.N,Led4*%
X141329000Y-90391500D02*
X141538000Y-90600500D01*
X141329000Y-63550500D02*
X141329000Y-90391500D01*
%TO.N,unconnected-(U1-3V3-Pad12)*%
X142330000Y-94038310D02*
X141048405Y-95319905D01*
X141538000Y-94830310D02*
X141538000Y-93949690D01*
X141538000Y-93949690D02*
X141008905Y-93420595D01*
X141048405Y-95319905D02*
X141538000Y-94830310D01*
X142330000Y-56517128D02*
X141829000Y-56016128D01*
X140475000Y-96930000D02*
X142330000Y-95075000D01*
%TO.N,unconnected-(U1-GPIO4{slash}MISO-Pad10)*%
X141262500Y-101569690D02*
X141262500Y-102450310D01*
%TO.N,unconnected-(U1-GPIO3{slash}MOSI-Pad11)*%
X134332000Y-93327000D02*
X111280000Y-93327000D01*
X140475000Y-99470000D02*
X134332000Y-93327000D01*
X96081550Y-77853050D02*
X95995100Y-77939500D01*
X96168000Y-77939500D02*
X96081550Y-77853050D01*
X111280000Y-93327000D02*
X96553500Y-78600500D01*
X95995100Y-77939500D02*
X95829000Y-77939500D01*
X95829000Y-78552030D02*
X95920000Y-78643030D01*
%TD*%
M02*
